# xmcd CD database file
#
# Track frame offsets:
#	150
#	17685
#	37560
#	54675
#	75745
#	94330
#	116425
#	140223
#	159040
#
# Disc length: 2237 seconds
#
# Revision: 2
# Processed by: cddbd v1.5.1PL0 Copyright (c) Steve Scherf et al.
# Submitted via: CDex 1.51
#
DISCID=6608bb09
DTITLE=LEO GANDELMAN - OCIDENTE
DYEAR=1988
DGENRE=Jazz
TTITLE0=SEM DESTINO
TTITLE1=OCIDENTE
TTITLE2=PENSANDO EM VOCÊ
TTITLE3=XAFOUL
TTITLE4=NO AR
TTITLE5=TECNO-MACUMBA
TTITLE6=RÁDIO SAX
TTITLE7=PRA DIZER ADEUS
TTITLE8=SAXSAMBANDO
EXTD=YEAR: 1988
EXTT0=
EXTT1=
EXTT2=
EXTT3=
EXTT4=
EXTT5=
EXTT6=
EXTT7=
EXTT8=
PLAYORDER=
